<svg width="1600" height="310" viewBox="0 0 1600 310" fill="none" xmlns="http://www.w3.org/2000/svg">
<rect width="1600" height="310" fill="#343A62"/>
<path d="M1068.43 156.243H1066.17V158.453H1064.49V156.243H1062.24V154.657H1064.49V152.447H1066.17V154.657H1068.43V156.243ZM1076.72 150.9V152.265L1073.34 160H1071.05L1074.31 152.616H1071.3V154.098H1069.43V150.9H1076.72ZM1088.46 150.9V152.265L1085.08 160H1082.79L1086.06 152.616H1083.04V154.098H1081.17V150.9H1088.46ZM1093.04 150.9V160H1090.93V152.59H1089.11V150.9H1093.04ZM1101.74 150.9V152.265L1098.36 160H1096.07L1099.34 152.616H1096.32V154.098H1094.45V150.9H1101.74ZM1109.48 158.284V160H1102.6V158.635L1106.11 155.32C1106.48 154.965 1106.74 154.661 1106.87 154.41C1107 154.15 1107.06 153.894 1107.06 153.643C1107.06 153.279 1106.93 153.002 1106.68 152.811C1106.44 152.612 1106.08 152.512 1105.6 152.512C1105.21 152.512 1104.85 152.59 1104.53 152.746C1104.2 152.893 1103.94 153.119 1103.72 153.422L1102.19 152.434C1102.54 151.905 1103.03 151.494 1103.65 151.199C1104.28 150.896 1104.99 150.744 1105.8 150.744C1106.48 150.744 1107.06 150.857 1107.57 151.082C1108.08 151.299 1108.47 151.611 1108.75 152.018C1109.04 152.417 1109.18 152.889 1109.18 153.435C1109.18 153.929 1109.08 154.393 1108.87 154.826C1108.66 155.259 1108.26 155.753 1107.66 156.308L1105.57 158.284H1109.48ZM1120.83 158.284V160H1113.95V158.635L1117.46 155.32C1117.83 154.965 1118.08 154.661 1118.21 154.41C1118.34 154.15 1118.41 153.894 1118.41 153.643C1118.41 153.279 1118.28 153.002 1118.03 152.811C1117.79 152.612 1117.43 152.512 1116.95 152.512C1116.56 152.512 1116.2 152.59 1115.87 152.746C1115.55 152.893 1115.29 153.119 1115.07 153.422L1113.53 152.434C1113.89 151.905 1114.38 151.494 1115 151.199C1115.63 150.896 1116.34 150.744 1117.15 150.744C1117.82 150.744 1118.41 150.857 1118.92 151.082C1119.43 151.299 1119.82 151.611 1120.1 152.018C1120.39 152.417 1120.53 152.889 1120.53 153.435C1120.53 153.929 1120.42 154.393 1120.22 154.826C1120.01 155.259 1119.61 155.753 1119.01 156.308L1116.91 158.284H1120.83ZM1126.05 154.293C1126.63 154.293 1127.16 154.41 1127.64 154.644C1128.12 154.878 1128.49 155.212 1128.77 155.645C1129.05 156.07 1129.19 156.564 1129.19 157.127C1129.19 157.734 1129.03 158.267 1128.73 158.726C1128.43 159.185 1128.01 159.541 1127.48 159.792C1126.96 160.035 1126.38 160.156 1125.74 160.156C1124.47 160.156 1123.47 159.766 1122.75 158.986C1122.03 158.206 1121.67 157.092 1121.67 155.645C1121.67 154.614 1121.87 153.73 1122.26 152.993C1122.65 152.256 1123.19 151.697 1123.88 151.316C1124.58 150.935 1125.39 150.744 1126.31 150.744C1126.8 150.744 1127.26 150.8 1127.7 150.913C1128.15 151.017 1128.54 151.169 1128.85 151.368L1128.07 152.915C1127.62 152.612 1127.05 152.46 1126.36 152.46C1125.59 152.46 1124.98 152.685 1124.53 153.136C1124.08 153.587 1123.84 154.241 1123.8 155.099C1124.34 154.562 1125.09 154.293 1126.05 154.293ZM1125.62 158.583C1126.07 158.583 1126.44 158.462 1126.72 158.219C1127 157.976 1127.14 157.647 1127.14 157.231C1127.14 156.815 1127 156.486 1126.72 156.243C1126.44 155.992 1126.07 155.866 1125.6 155.866C1125.14 155.866 1124.76 155.996 1124.47 156.256C1124.17 156.507 1124.02 156.832 1124.02 157.231C1124.02 157.63 1124.17 157.955 1124.45 158.206C1124.74 158.457 1125.13 158.583 1125.62 158.583ZM1138.28 158.089H1136.8V160H1134.75V158.089H1129.84V156.672L1134.13 150.9H1136.34L1132.37 156.373H1134.81V154.67H1136.8V156.373H1138.28V158.089ZM1145.71 154.319C1147 154.319 1147.94 154.575 1148.55 155.086C1149.16 155.597 1149.47 156.282 1149.47 157.14C1149.47 157.695 1149.33 158.202 1149.05 158.661C1148.78 159.112 1148.35 159.476 1147.78 159.753C1147.22 160.022 1146.52 160.156 1145.69 160.156C1145.05 160.156 1144.41 160.074 1143.79 159.909C1143.17 159.736 1142.65 159.493 1142.22 159.181L1143.05 157.569C1143.4 157.829 1143.79 158.033 1144.24 158.18C1144.7 158.319 1145.16 158.388 1145.64 158.388C1146.16 158.388 1146.58 158.284 1146.88 158.076C1147.19 157.868 1147.34 157.578 1147.34 157.205C1147.34 156.815 1147.18 156.52 1146.86 156.321C1146.55 156.122 1146 156.022 1145.22 156.022H1142.89L1143.36 150.9H1148.91V152.59H1145.12L1144.97 154.319H1145.71ZM1153.38 154.319C1154.66 154.319 1155.61 154.575 1156.22 155.086C1156.83 155.597 1157.14 156.282 1157.14 157.14C1157.14 157.695 1157 158.202 1156.72 158.661C1156.45 159.112 1156.02 159.476 1155.45 159.753C1154.89 160.022 1154.19 160.156 1153.36 160.156C1152.71 160.156 1152.08 160.074 1151.46 159.909C1150.84 159.736 1150.32 159.493 1149.88 159.181L1150.72 157.569C1151.06 157.829 1151.46 158.033 1151.91 158.18C1152.36 158.319 1152.83 158.388 1153.3 158.388C1153.83 158.388 1154.25 158.284 1154.55 158.076C1154.85 157.868 1155.01 157.578 1155.01 157.205C1155.01 156.815 1154.85 156.52 1154.53 156.321C1154.21 156.122 1153.67 156.022 1152.89 156.022H1150.56L1151.03 150.9H1156.58V152.59H1152.78L1152.64 154.319H1153.38ZM1164.79 154.319C1166.08 154.319 1167.02 154.575 1167.63 155.086C1168.24 155.597 1168.55 156.282 1168.55 157.14C1168.55 157.695 1168.41 158.202 1168.14 158.661C1167.86 159.112 1167.43 159.476 1166.86 159.753C1166.3 160.022 1165.6 160.156 1164.77 160.156C1164.13 160.156 1163.49 160.074 1162.87 159.909C1162.26 159.736 1161.73 159.493 1161.3 159.181L1162.13 157.569C1162.48 157.829 1162.87 158.033 1163.33 158.18C1163.78 158.319 1164.24 158.388 1164.72 158.388C1165.25 158.388 1165.66 158.284 1165.96 158.076C1166.27 157.868 1166.42 157.578 1166.42 157.205C1166.42 156.815 1166.26 156.52 1165.94 156.321C1165.63 156.122 1165.08 156.022 1164.3 156.022H1161.97L1162.44 150.9H1167.99V152.59H1164.2L1164.05 154.319H1164.79ZM1172.46 154.319C1173.75 154.319 1174.69 154.575 1175.3 155.086C1175.91 155.597 1176.22 156.282 1176.22 157.14C1176.22 157.695 1176.08 158.202 1175.8 158.661C1175.53 159.112 1175.1 159.476 1174.53 159.753C1173.97 160.022 1173.27 160.156 1172.44 160.156C1171.8 160.156 1171.16 160.074 1170.54 159.909C1169.92 159.736 1169.4 159.493 1168.97 159.181L1169.8 157.569C1170.14 157.829 1170.54 158.033 1170.99 158.18C1171.44 158.319 1171.91 158.388 1172.38 158.388C1172.91 158.388 1173.33 158.284 1173.63 158.076C1173.94 157.868 1174.09 157.578 1174.09 157.205C1174.09 156.815 1173.93 156.52 1173.61 156.321C1173.29 156.122 1172.75 156.022 1171.97 156.022H1169.64L1170.11 150.9H1175.66V152.59H1171.86L1171.72 154.319H1172.46Z" fill="white"/>
<path d="M511.283 152.368H508.331V160H507.455V152.368H504.503V151.6H511.283V152.368ZM517.502 157.108H512.222C512.27 157.764 512.522 158.296 512.978 158.704C513.434 159.104 514.01 159.304 514.706 159.304C515.098 159.304 515.458 159.236 515.786 159.1C516.114 158.956 516.398 158.748 516.638 158.476L517.118 159.028C516.838 159.364 516.486 159.62 516.062 159.796C515.646 159.972 515.186 160.06 514.682 160.06C514.034 160.06 513.458 159.924 512.954 159.652C512.458 159.372 512.07 158.988 511.79 158.5C511.51 158.012 511.37 157.46 511.37 156.844C511.37 156.228 511.502 155.676 511.766 155.188C512.038 154.7 512.406 154.32 512.87 154.048C513.342 153.776 513.87 153.64 514.454 153.64C515.038 153.64 515.562 153.776 516.026 154.048C516.49 154.32 516.854 154.7 517.118 155.188C517.382 155.668 517.514 156.22 517.514 156.844L517.502 157.108ZM514.454 154.372C513.846 154.372 513.334 154.568 512.918 154.96C512.51 155.344 512.278 155.848 512.222 156.472H516.698C516.642 155.848 516.406 155.344 515.99 154.96C515.582 154.568 515.07 154.372 514.454 154.372ZM524.431 153.688V160H523.579V154.444H520.555L520.471 156.004C520.407 157.316 520.255 158.324 520.015 159.028C519.775 159.732 519.347 160.084 518.731 160.084C518.563 160.084 518.359 160.052 518.119 159.988L518.179 159.256C518.323 159.288 518.423 159.304 518.479 159.304C518.807 159.304 519.055 159.152 519.223 158.848C519.391 158.544 519.503 158.168 519.559 157.72C519.615 157.272 519.663 156.68 519.703 155.944L519.811 153.688H524.431ZM532.373 157.108H527.093C527.141 157.764 527.393 158.296 527.849 158.704C528.305 159.104 528.881 159.304 529.577 159.304C529.969 159.304 530.329 159.236 530.657 159.1C530.985 158.956 531.269 158.748 531.509 158.476L531.989 159.028C531.709 159.364 531.357 159.62 530.933 159.796C530.517 159.972 530.057 160.06 529.553 160.06C528.905 160.06 528.329 159.924 527.825 159.652C527.329 159.372 526.941 158.988 526.661 158.5C526.381 158.012 526.241 157.46 526.241 156.844C526.241 156.228 526.373 155.676 526.637 155.188C526.909 154.7 527.277 154.32 527.741 154.048C528.213 153.776 528.741 153.64 529.325 153.64C529.909 153.64 530.433 153.776 530.897 154.048C531.361 154.32 531.725 154.7 531.989 155.188C532.253 155.668 532.385 156.22 532.385 156.844L532.373 157.108ZM529.325 154.372C528.717 154.372 528.205 154.568 527.789 154.96C527.381 155.344 527.149 155.848 527.093 156.472H531.569C531.513 155.848 531.277 155.344 530.861 154.96C530.453 154.568 529.941 154.372 529.325 154.372ZM541.891 156.832C541.891 157.816 541.567 158.588 540.919 159.148C540.271 159.708 539.355 160.012 538.171 160.06V162.328H537.343V160.072C536.167 160.024 535.255 159.72 534.607 159.16C533.967 158.592 533.647 157.816 533.647 156.832C533.647 155.856 533.967 155.092 534.607 154.54C535.255 153.988 536.167 153.688 537.343 153.64V151.096H538.171V153.64C539.355 153.696 540.271 154 540.919 154.552C541.567 155.104 541.891 155.864 541.891 156.832ZM534.487 156.832C534.487 157.584 534.727 158.172 535.207 158.596C535.695 159.02 536.407 159.26 537.343 159.316V154.396C536.415 154.444 535.707 154.68 535.219 155.104C534.731 155.52 534.487 156.096 534.487 156.832ZM538.171 159.316C539.107 159.268 539.819 159.032 540.307 158.608C540.803 158.184 541.051 157.592 541.051 156.832C541.051 156.088 540.803 155.508 540.307 155.092C539.819 154.676 539.107 154.444 538.171 154.396V159.316ZM546.296 160.06C545.688 160.06 545.14 159.924 544.652 159.652C544.164 159.372 543.78 158.988 543.5 158.5C543.22 158.012 543.08 157.46 543.08 156.844C543.08 156.228 543.22 155.676 543.5 155.188C543.78 154.7 544.164 154.32 544.652 154.048C545.14 153.776 545.688 153.64 546.296 153.64C546.904 153.64 547.452 153.776 547.94 154.048C548.428 154.32 548.808 154.7 549.08 155.188C549.36 155.676 549.5 156.228 549.5 156.844C549.5 157.46 549.36 158.012 549.08 158.5C548.808 158.988 548.428 159.372 547.94 159.652C547.452 159.924 546.904 160.06 546.296 160.06ZM546.296 159.304C546.744 159.304 547.144 159.204 547.496 159.004C547.856 158.796 548.136 158.504 548.336 158.128C548.536 157.752 548.636 157.324 548.636 156.844C548.636 156.364 548.536 155.936 548.336 155.56C548.136 155.184 547.856 154.896 547.496 154.696C547.144 154.488 546.744 154.384 546.296 154.384C545.848 154.384 545.444 154.488 545.084 154.696C544.732 154.896 544.452 155.184 544.244 155.56C544.044 155.936 543.944 156.364 543.944 156.844C543.944 157.324 544.044 157.752 544.244 158.128C544.452 158.504 544.732 158.796 545.084 159.004C545.444 159.204 545.848 159.304 546.296 159.304ZM551.321 153.688H552.173V156.484H556.145V153.688H556.997V160H556.145V157.216H552.173V160H551.321V153.688ZM562.071 155.92C562.863 155.928 563.467 156.104 563.883 156.448C564.299 156.792 564.507 157.288 564.507 157.936C564.507 158.608 564.283 159.124 563.835 159.484C563.387 159.844 562.747 160.02 561.915 160.012L559.419 160V153.688H560.271V155.896L562.071 155.92ZM565.563 153.688H566.415V160H565.563V153.688ZM561.867 159.364C562.451 159.372 562.891 159.256 563.187 159.016C563.491 158.768 563.643 158.408 563.643 157.936C563.643 157.472 563.495 157.128 563.199 156.904C562.903 156.68 562.459 156.564 561.867 156.556L560.271 156.532V159.34L561.867 159.364Z" fill="white"/>
<path d="M606.507 151.6V160H605.631V152.368H600.315V160H599.439V151.6H606.507ZM614.298 153.688V160H613.446V154.444H610.422L610.338 156.004C610.274 157.316 610.122 158.324 609.882 159.028C609.642 159.732 609.214 160.084 608.598 160.084C608.43 160.084 608.226 160.052 607.986 159.988L608.046 159.256C608.19 159.288 608.29 159.304 608.346 159.304C608.674 159.304 608.922 159.152 609.09 158.848C609.258 158.544 609.37 158.168 609.426 157.72C609.482 157.272 609.53 156.68 609.57 155.944L609.678 153.688H614.298ZM618.892 153.64C619.716 153.64 620.348 153.848 620.788 154.264C621.228 154.672 621.448 155.28 621.448 156.088V160H620.632V159.016C620.44 159.344 620.156 159.6 619.78 159.784C619.412 159.968 618.972 160.06 618.46 160.06C617.756 160.06 617.196 159.892 616.78 159.556C616.364 159.22 616.156 158.776 616.156 158.224C616.156 157.688 616.348 157.256 616.732 156.928C617.124 156.6 617.744 156.436 618.592 156.436H620.596V156.052C620.596 155.508 620.444 155.096 620.14 154.816C619.836 154.528 619.392 154.384 618.808 154.384C618.408 154.384 618.024 154.452 617.656 154.588C617.288 154.716 616.972 154.896 616.708 155.128L616.324 154.492C616.644 154.22 617.028 154.012 617.476 153.868C617.924 153.716 618.396 153.64 618.892 153.64ZM618.592 159.388C619.072 159.388 619.484 159.28 619.828 159.064C620.172 158.84 620.428 158.52 620.596 158.104V157.072H618.616C617.536 157.072 616.996 157.448 616.996 158.2C616.996 158.568 617.136 158.86 617.416 159.076C617.696 159.284 618.088 159.388 618.592 159.388ZM623.716 153.688H624.568V156.484H628.54V153.688H629.392V160H628.54V157.216H624.568V160H623.716V153.688ZM640.526 153.688V160H631.814V153.688H632.666V159.256H635.762V153.688H636.614V159.256H639.674V153.688H640.526ZM648.478 157.108H643.198C643.246 157.764 643.498 158.296 643.954 158.704C644.41 159.104 644.986 159.304 645.682 159.304C646.074 159.304 646.434 159.236 646.762 159.1C647.09 158.956 647.374 158.748 647.614 158.476L648.094 159.028C647.814 159.364 647.462 159.62 647.038 159.796C646.622 159.972 646.162 160.06 645.658 160.06C645.01 160.06 644.434 159.924 643.93 159.652C643.434 159.372 643.046 158.988 642.766 158.5C642.486 158.012 642.346 157.46 642.346 156.844C642.346 156.228 642.478 155.676 642.742 155.188C643.014 154.7 643.382 154.32 643.846 154.048C644.318 153.776 644.846 153.64 645.43 153.64C646.014 153.64 646.538 153.776 647.002 154.048C647.466 154.32 647.83 154.7 648.094 155.188C648.358 155.668 648.49 156.22 648.49 156.844L648.478 157.108ZM645.43 154.372C644.822 154.372 644.31 154.568 643.894 154.96C643.486 155.344 643.254 155.848 643.198 156.472H647.674C647.618 155.848 647.382 155.344 646.966 154.96C646.558 154.568 646.046 154.372 645.43 154.372ZM654.535 154.444H652.147V160H651.295V154.444H648.907V153.688H654.535V154.444ZM658.419 155.92C659.211 155.928 659.815 156.104 660.231 156.448C660.647 156.792 660.855 157.288 660.855 157.936C660.855 158.608 660.631 159.124 660.183 159.484C659.735 159.844 659.095 160.02 658.263 160.012L655.767 160V153.688H656.619V155.896L658.419 155.92ZM661.911 153.688H662.763V160H661.911V153.688ZM658.215 159.364C658.799 159.372 659.239 159.256 659.535 159.016C659.839 158.768 659.991 158.408 659.991 157.936C659.991 157.472 659.843 157.128 659.547 156.904C659.251 156.68 658.807 156.564 658.215 156.556L656.619 156.532V159.34L658.215 159.364Z" fill="white"/>
<path d="M703.181 159.232V161.884H702.353V160H695.021L695.009 161.884H694.181L694.193 159.232H694.613C695.165 159.2 695.549 158.764 695.765 157.924C695.981 157.076 696.113 155.876 696.161 154.324L696.257 151.6H701.921V159.232H703.181ZM696.953 154.408C696.913 155.688 696.813 156.744 696.653 157.576C696.501 158.4 696.241 158.952 695.873 159.232H701.045V152.368H697.025L696.953 154.408ZM708.04 153.64C708.632 153.64 709.168 153.776 709.648 154.048C710.128 154.312 710.504 154.688 710.776 155.176C711.048 155.664 711.184 156.22 711.184 156.844C711.184 157.476 711.048 158.036 710.776 158.524C710.504 159.012 710.128 159.392 709.648 159.664C709.176 159.928 708.64 160.06 708.04 160.06C707.528 160.06 707.064 159.956 706.648 159.748C706.24 159.532 705.904 159.22 705.64 158.812V162.328H704.788V153.688H705.604V154.936C705.86 154.52 706.196 154.2 706.612 153.976C707.036 153.752 707.512 153.64 708.04 153.64ZM707.98 159.304C708.42 159.304 708.82 159.204 709.18 159.004C709.54 158.796 709.82 158.504 710.02 158.128C710.228 157.752 710.332 157.324 710.332 156.844C710.332 156.364 710.228 155.94 710.02 155.572C709.82 155.196 709.54 154.904 709.18 154.696C708.82 154.488 708.42 154.384 707.98 154.384C707.532 154.384 707.128 154.488 706.768 154.696C706.416 154.904 706.136 155.196 705.928 155.572C705.728 155.94 705.628 156.364 705.628 156.844C705.628 157.324 705.728 157.752 705.928 158.128C706.136 158.504 706.416 158.796 706.768 159.004C707.128 159.204 707.532 159.304 707.98 159.304ZM715.619 160.06C715.011 160.06 714.463 159.924 713.975 159.652C713.487 159.372 713.103 158.988 712.823 158.5C712.543 158.012 712.403 157.46 712.403 156.844C712.403 156.228 712.543 155.676 712.823 155.188C713.103 154.7 713.487 154.32 713.975 154.048C714.463 153.776 715.011 153.64 715.619 153.64C716.227 153.64 716.775 153.776 717.263 154.048C717.751 154.32 718.131 154.7 718.403 155.188C718.683 155.676 718.823 156.228 718.823 156.844C718.823 157.46 718.683 158.012 718.403 158.5C718.131 158.988 717.751 159.372 717.263 159.652C716.775 159.924 716.227 160.06 715.619 160.06ZM715.619 159.304C716.067 159.304 716.467 159.204 716.819 159.004C717.179 158.796 717.459 158.504 717.659 158.128C717.859 157.752 717.959 157.324 717.959 156.844C717.959 156.364 717.859 155.936 717.659 155.56C717.459 155.184 717.179 154.896 716.819 154.696C716.467 154.488 716.067 154.384 715.619 154.384C715.171 154.384 714.767 154.488 714.407 154.696C714.055 154.896 713.775 155.184 713.567 155.56C713.367 155.936 713.267 156.364 713.267 156.844C713.267 157.324 713.367 157.752 713.567 158.128C713.775 158.504 714.055 158.796 714.407 159.004C714.767 159.204 715.171 159.304 715.619 159.304ZM720.644 153.688H721.496V156.484H725.468V153.688H726.32V160H725.468V157.216H721.496V160H720.644V153.688ZM731.393 155.92C732.185 155.928 732.789 156.104 733.205 156.448C733.621 156.792 733.829 157.288 733.829 157.936C733.829 158.608 733.605 159.124 733.157 159.484C732.709 159.844 732.069 160.02 731.237 160.012L728.741 160V153.688H729.593V155.896L731.393 155.92ZM734.885 153.688H735.737V160H734.885V153.688ZM731.189 159.364C731.773 159.372 732.213 159.256 732.509 159.016C732.813 158.768 732.965 158.408 732.965 157.936C732.965 157.472 732.817 157.128 732.521 156.904C732.225 156.68 731.781 156.564 731.189 156.556L729.593 156.532V159.34L731.189 159.364Z" fill="white"/>
<path d="M768.562 151.6H769.438V158.56L774.814 151.6H775.618V160H774.742V153.052L769.366 160H768.562V151.6ZM782.713 154.444H779.101V160H778.249V153.688H782.713V154.444ZM787.196 153.64C787.788 153.64 788.324 153.776 788.804 154.048C789.284 154.312 789.66 154.688 789.932 155.176C790.204 155.664 790.34 156.22 790.34 156.844C790.34 157.476 790.204 158.036 789.932 158.524C789.66 159.012 789.284 159.392 788.804 159.664C788.332 159.928 787.796 160.06 787.196 160.06C786.684 160.06 786.22 159.956 785.804 159.748C785.396 159.532 785.06 159.22 784.796 158.812V162.328H783.944V153.688H784.76V154.936C785.016 154.52 785.352 154.2 785.768 153.976C786.192 153.752 786.668 153.64 787.196 153.64ZM787.136 159.304C787.576 159.304 787.976 159.204 788.336 159.004C788.696 158.796 788.976 158.504 789.176 158.128C789.384 157.752 789.488 157.324 789.488 156.844C789.488 156.364 789.384 155.94 789.176 155.572C788.976 155.196 788.696 154.904 788.336 154.696C787.976 154.488 787.576 154.384 787.136 154.384C786.688 154.384 786.284 154.488 785.924 154.696C785.572 154.904 785.292 155.196 785.084 155.572C784.884 155.94 784.784 156.364 784.784 156.844C784.784 157.324 784.884 157.752 785.084 158.128C785.292 158.504 785.572 158.796 785.924 159.004C786.284 159.204 786.688 159.304 787.136 159.304ZM797.359 153.688L794.203 160.756C793.947 161.348 793.651 161.768 793.315 162.016C792.979 162.264 792.575 162.388 792.103 162.388C791.799 162.388 791.515 162.34 791.251 162.244C790.987 162.148 790.759 162.004 790.567 161.812L790.963 161.176C791.283 161.496 791.667 161.656 792.115 161.656C792.403 161.656 792.647 161.576 792.847 161.416C793.055 161.256 793.247 160.984 793.423 160.6L793.699 159.988L790.879 153.688H791.767L794.143 159.052L796.519 153.688H797.359ZM807.399 153.688V160H798.687V153.688H799.539V159.256H802.635V153.688H803.487V159.256H806.547V153.688H807.399ZM812.123 157.192H810.683V160H809.831V153.688H810.683V156.46H812.135L814.355 153.688H815.279L812.795 156.748L815.459 160H814.451L812.123 157.192ZM816.804 153.688H817.656V158.704L821.868 153.688H822.624V160H821.772V154.984L817.572 160H816.804V153.688Z" fill="white"/>
<circle cx="856" cy="155.5" r="2" fill="white"/>
<circle cx="863" cy="155.5" r="2" fill="white"/>
<circle cx="870" cy="155.5" r="2" fill="white"/>
<path d="M950.377 143L943 151.267M950.377 143L958 151.267M950.377 143V163" stroke="white"/>
<path d="M260.747 146.616H256.418L256.431 154H254.338V144.9H260.76L260.747 146.616ZM266.441 152.05H262.216L261.41 154H259.252L263.308 144.9H265.388L269.457 154H267.247L266.441 152.05ZM265.778 150.451L264.335 146.967L262.892 150.451H265.778ZM280.126 152.284V155.885H278.176V154H271.754V155.885H269.804L269.817 152.284H270.181C270.727 152.267 271.113 151.868 271.338 151.088C271.564 150.308 271.702 149.194 271.754 147.747L271.858 144.9H278.852V152.284H280.126ZM273.613 147.942C273.57 149.025 273.479 149.935 273.34 150.672C273.202 151.4 272.989 151.937 272.703 152.284H276.772V146.616H273.652L273.613 147.942ZM289.799 150.334H288.473V154H286.406V150.334H285.054L283.013 154H280.582L283.312 149.242L280.751 144.9H282.974L285.015 148.579H286.406V144.9H288.473V148.579H289.825L291.879 144.9H294.102L291.554 149.242L294.271 154H291.84L289.799 150.334ZM302.326 152.31V154H295.28V144.9H302.157V146.59H297.373V148.566H301.598V150.204H297.373V152.31H302.326ZM310.982 146.616H308.07V154H305.99V146.616H303.091V144.9H310.982V146.616ZM318.01 152.05H313.785L312.979 154H310.821L314.877 144.9H316.957L321.026 154H318.816L318.01 152.05ZM317.347 150.451L315.904 146.967L314.461 150.451H317.347ZM326.172 144.9C326.978 144.9 327.675 145.034 328.265 145.303C328.863 145.572 329.322 145.953 329.643 146.447C329.963 146.941 330.124 147.526 330.124 148.202C330.124 148.869 329.963 149.454 329.643 149.957C329.322 150.451 328.863 150.832 328.265 151.101C327.675 151.361 326.978 151.491 326.172 151.491H324.339V154H322.233V144.9H326.172ZM326.055 149.775C326.687 149.775 327.168 149.641 327.498 149.372C327.827 149.095 327.992 148.705 327.992 148.202C327.992 147.691 327.827 147.301 327.498 147.032C327.168 146.755 326.687 146.616 326.055 146.616H324.339V149.775H326.055ZM331.513 144.9H333.606V150.828L337.948 144.9H339.924V154H337.844V148.085L333.502 154H331.513V144.9ZM350.406 144.9L346.532 152.102C346.159 152.795 345.708 153.32 345.18 153.675C344.66 154.03 344.092 154.208 343.477 154.208C343 154.208 342.506 154.104 341.995 153.896L342.502 152.297C342.866 152.41 343.169 152.466 343.412 152.466C343.672 152.466 343.906 152.405 344.114 152.284C344.322 152.154 344.512 151.955 344.686 151.686L344.764 151.582L341.176 144.9H343.425L345.843 149.788L348.339 144.9H350.406ZM359.687 154L359.674 148.553L356.996 153.038H356.06L353.382 148.657V154H351.406V144.9H353.148L356.554 150.555L359.908 144.9H361.65L361.663 154H359.687Z" fill="white"/>
<path d="M262.295 162.3V170H261.514V163.84L258.489 169.021H258.104L255.079 163.873V170H254.298V162.3H254.969L258.313 168.009L261.624 162.3H262.295ZM266.694 164.17C267.449 164.17 268.028 164.361 268.432 164.742C268.835 165.116 269.037 165.673 269.037 166.414V170H268.289V169.098C268.113 169.399 267.852 169.633 267.508 169.802C267.17 169.971 266.767 170.055 266.298 170.055C265.652 170.055 265.139 169.901 264.758 169.593C264.376 169.285 264.186 168.878 264.186 168.372C264.186 167.881 264.362 167.485 264.714 167.184C265.073 166.883 265.641 166.733 266.419 166.733H268.256V166.381C268.256 165.882 268.116 165.505 267.838 165.248C267.559 164.984 267.152 164.852 266.617 164.852C266.25 164.852 265.898 164.914 265.561 165.039C265.223 165.156 264.934 165.321 264.692 165.534L264.34 164.951C264.633 164.702 264.985 164.511 265.396 164.379C265.806 164.24 266.239 164.17 266.694 164.17ZM266.419 169.439C266.859 169.439 267.236 169.34 267.552 169.142C267.867 168.937 268.102 168.643 268.256 168.262V167.316H266.441C265.451 167.316 264.956 167.661 264.956 168.35C264.956 168.687 265.084 168.955 265.341 169.153C265.597 169.344 265.957 169.439 266.419 169.439ZM275.208 164.907H271.897V170H271.116V164.214H275.208V164.907ZM278.328 164.17C279.083 164.17 279.662 164.361 280.066 164.742C280.469 165.116 280.671 165.673 280.671 166.414V170H279.923V169.098C279.747 169.399 279.486 169.633 279.142 169.802C278.804 169.971 278.401 170.055 277.932 170.055C277.286 170.055 276.773 169.901 276.392 169.593C276.01 169.285 275.82 168.878 275.82 168.372C275.82 167.881 275.996 167.485 276.348 167.184C276.707 166.883 277.275 166.733 278.053 166.733H279.89V166.381C279.89 165.882 279.75 165.505 279.472 165.248C279.193 164.984 278.786 164.852 278.251 164.852C277.884 164.852 277.532 164.914 277.195 165.039C276.857 165.156 276.568 165.321 276.326 165.534L275.974 164.951C276.267 164.702 276.619 164.511 277.03 164.379C277.44 164.24 277.873 164.17 278.328 164.17ZM278.053 169.439C278.493 169.439 278.87 169.34 279.186 169.142C279.501 168.937 279.736 168.643 279.89 168.262V167.316H278.075C277.085 167.316 276.59 167.661 276.59 168.35C276.59 168.687 276.718 168.955 276.975 169.153C277.231 169.344 277.591 169.439 278.053 169.439ZM285.448 166.986C285.858 167.081 286.174 167.246 286.394 167.481C286.621 167.716 286.735 168.002 286.735 168.339C286.735 168.676 286.617 168.977 286.383 169.241C286.155 169.505 285.844 169.71 285.448 169.857C285.052 169.996 284.615 170.066 284.139 170.066C283.721 170.066 283.31 170.007 282.907 169.89C282.503 169.765 282.151 169.586 281.851 169.351L282.115 168.768C282.379 168.966 282.687 169.12 283.039 169.23C283.391 169.34 283.746 169.395 284.106 169.395C284.641 169.395 285.077 169.296 285.415 169.098C285.759 168.893 285.932 168.618 285.932 168.273C285.932 167.965 285.792 167.727 285.514 167.558C285.235 167.382 284.854 167.294 284.37 167.294H283.38V166.722H284.326C284.758 166.722 285.107 166.641 285.371 166.48C285.635 166.311 285.767 166.088 285.767 165.809C285.767 165.501 285.616 165.259 285.316 165.083C285.022 164.907 284.637 164.819 284.161 164.819C283.537 164.819 282.921 164.977 282.313 165.292L282.093 164.687C282.782 164.328 283.497 164.148 284.238 164.148C284.678 164.148 285.074 164.214 285.426 164.346C285.785 164.471 286.064 164.65 286.262 164.885C286.467 165.12 286.57 165.391 286.57 165.699C286.57 165.992 286.467 166.253 286.262 166.48C286.064 166.707 285.792 166.876 285.448 166.986ZM288.507 164.214H289.288V168.812L293.149 164.214H293.842V170H293.061V165.402L289.211 170H288.507V164.214ZM296.081 164.214H296.862V166.777H300.503V164.214H301.284V170H300.503V167.448H296.862V170H296.081V164.214ZM312.41 169.318V171.452H311.673V170H306.382V164.214H307.163V169.318H310.694V164.214H311.475V169.318H312.41ZM313.902 164.214H314.683V168.812L318.544 164.214H319.237V170H318.456V165.402L314.606 170H313.902V164.214ZM328.46 167.096C328.46 167.998 328.163 168.706 327.569 169.219C326.975 169.732 326.136 170.011 325.05 170.055V172.134H324.291V170.066C323.213 170.022 322.377 169.743 321.783 169.23C321.197 168.709 320.903 167.998 320.903 167.096C320.903 166.201 321.197 165.501 321.783 164.995C322.377 164.489 323.213 164.214 324.291 164.17V161.838H325.05V164.17C326.136 164.221 326.975 164.5 327.569 165.006C328.163 165.512 328.46 166.209 328.46 167.096ZM321.673 167.096C321.673 167.785 321.893 168.324 322.333 168.713C322.781 169.102 323.433 169.322 324.291 169.373V164.863C323.441 164.907 322.792 165.123 322.344 165.512C321.897 165.893 321.673 166.421 321.673 167.096ZM325.05 169.373C325.908 169.329 326.561 169.113 327.008 168.724C327.463 168.335 327.69 167.793 327.69 167.096C327.69 166.414 327.463 165.882 327.008 165.501C326.561 165.12 325.908 164.907 325.05 164.863V169.373ZM333.093 164.17C333.636 164.17 334.127 164.295 334.567 164.544C335.007 164.786 335.352 165.131 335.601 165.578C335.85 166.025 335.975 166.535 335.975 167.107C335.975 167.686 335.85 168.2 335.601 168.647C335.352 169.094 335.007 169.443 334.567 169.692C334.134 169.934 333.643 170.055 333.093 170.055C332.624 170.055 332.198 169.96 331.817 169.769C331.443 169.571 331.135 169.285 330.893 168.911V172.134H330.112V164.214H330.86V165.358C331.095 164.977 331.403 164.683 331.784 164.478C332.173 164.273 332.609 164.17 333.093 164.17ZM333.038 169.362C333.441 169.362 333.808 169.27 334.138 169.087C334.468 168.896 334.725 168.629 334.908 168.284C335.099 167.939 335.194 167.547 335.194 167.107C335.194 166.667 335.099 166.278 334.908 165.941C334.725 165.596 334.468 165.329 334.138 165.138C333.808 164.947 333.441 164.852 333.038 164.852C332.627 164.852 332.257 164.947 331.927 165.138C331.604 165.329 331.348 165.596 331.157 165.941C330.974 166.278 330.882 166.667 330.882 167.107C330.882 167.547 330.974 167.939 331.157 168.284C331.348 168.629 331.604 168.896 331.927 169.087C332.257 169.27 332.627 169.362 333.038 169.362ZM340.04 170.055C339.483 170.055 338.98 169.93 338.533 169.681C338.086 169.424 337.734 169.072 337.477 168.625C337.22 168.178 337.092 167.672 337.092 167.107C337.092 166.542 337.22 166.036 337.477 165.589C337.734 165.142 338.086 164.793 338.533 164.544C338.98 164.295 339.483 164.17 340.04 164.17C340.597 164.17 341.1 164.295 341.547 164.544C341.994 164.793 342.343 165.142 342.592 165.589C342.849 166.036 342.977 166.542 342.977 167.107C342.977 167.672 342.849 168.178 342.592 168.625C342.343 169.072 341.994 169.424 341.547 169.681C341.1 169.93 340.597 170.055 340.04 170.055ZM340.04 169.362C340.451 169.362 340.817 169.27 341.14 169.087C341.47 168.896 341.727 168.629 341.91 168.284C342.093 167.939 342.185 167.547 342.185 167.107C342.185 166.667 342.093 166.275 341.91 165.93C341.727 165.585 341.47 165.321 341.14 165.138C340.817 164.947 340.451 164.852 340.04 164.852C339.629 164.852 339.259 164.947 338.929 165.138C338.606 165.321 338.35 165.585 338.159 165.93C337.976 166.275 337.884 166.667 337.884 167.107C337.884 167.547 337.976 167.939 338.159 168.284C338.35 168.629 338.606 168.896 338.929 169.087C339.259 169.27 339.629 169.362 340.04 169.362ZM348.331 167.008C349.116 167.191 349.508 167.664 349.508 168.427C349.508 168.933 349.321 169.322 348.947 169.593C348.573 169.864 348.016 170 347.275 170H344.646V164.214H347.198C347.858 164.214 348.375 164.342 348.749 164.599C349.123 164.856 349.31 165.222 349.31 165.699C349.31 166.014 349.222 166.286 349.046 166.513C348.877 166.733 348.639 166.898 348.331 167.008ZM345.405 166.788H347.143C347.59 166.788 347.931 166.704 348.166 166.535C348.408 166.366 348.529 166.121 348.529 165.798C348.529 165.475 348.408 165.233 348.166 165.072C347.931 164.911 347.59 164.83 347.143 164.83H345.405V166.788ZM347.242 169.384C347.741 169.384 348.115 169.303 348.364 169.142C348.613 168.981 348.738 168.728 348.738 168.383C348.738 168.038 348.624 167.785 348.397 167.624C348.17 167.455 347.81 167.371 347.319 167.371H345.405V169.384H347.242ZM353.77 166.26C354.496 166.267 355.049 166.429 355.431 166.744C355.812 167.059 356.003 167.514 356.003 168.108C356.003 168.724 355.797 169.197 355.387 169.527C354.976 169.857 354.389 170.018 353.627 170.011L351.339 170V164.214H352.12V166.238L353.77 166.26ZM356.971 164.214H357.752V170H356.971V164.214ZM353.583 169.417C354.118 169.424 354.521 169.318 354.793 169.098C355.071 168.871 355.211 168.541 355.211 168.108C355.211 167.683 355.075 167.367 354.804 167.162C354.532 166.957 354.125 166.85 353.583 166.843L352.12 166.821V169.395L353.583 169.417ZM363.594 170L361.757 167.58L359.909 170H359.029L361.317 167.03L359.139 164.214H360.019L361.757 166.48L363.495 164.214H364.353L362.175 167.03L364.485 170H363.594ZM371.625 164.17C372.168 164.17 372.659 164.295 373.099 164.544C373.539 164.786 373.884 165.131 374.133 165.578C374.383 166.025 374.507 166.535 374.507 167.107C374.507 167.686 374.383 168.2 374.133 168.647C373.884 169.094 373.539 169.443 373.099 169.692C372.667 169.934 372.175 170.055 371.625 170.055C371.156 170.055 370.731 169.96 370.349 169.769C369.975 169.571 369.667 169.285 369.425 168.911V172.134H368.644V164.214H369.392V165.358C369.627 164.977 369.935 164.683 370.316 164.478C370.705 164.273 371.141 164.17 371.625 164.17ZM371.57 169.362C371.974 169.362 372.34 169.27 372.67 169.087C373 168.896 373.257 168.629 373.44 168.284C373.631 167.939 373.726 167.547 373.726 167.107C373.726 166.667 373.631 166.278 373.44 165.941C373.257 165.596 373 165.329 372.67 165.138C372.34 164.947 371.974 164.852 371.57 164.852C371.16 164.852 370.789 164.947 370.459 165.138C370.137 165.329 369.88 165.596 369.689 165.941C369.506 166.278 369.414 166.667 369.414 167.107C369.414 167.547 369.506 167.939 369.689 168.284C369.88 168.629 370.137 168.896 370.459 169.087C370.789 169.27 371.16 169.362 371.57 169.362ZM381.245 167.349H376.405C376.449 167.95 376.68 168.438 377.098 168.812C377.516 169.179 378.044 169.362 378.682 169.362C379.042 169.362 379.372 169.3 379.672 169.175C379.973 169.043 380.233 168.852 380.453 168.603L380.893 169.109C380.637 169.417 380.314 169.652 379.925 169.813C379.544 169.974 379.122 170.055 378.66 170.055C378.066 170.055 377.538 169.93 377.076 169.681C376.622 169.424 376.266 169.072 376.009 168.625C375.753 168.178 375.624 167.672 375.624 167.107C375.624 166.542 375.745 166.036 375.987 165.589C376.237 165.142 376.574 164.793 376.999 164.544C377.432 164.295 377.916 164.17 378.451 164.17C378.987 164.17 379.467 164.295 379.892 164.544C380.318 164.793 380.651 165.142 380.893 165.589C381.135 166.029 381.256 166.535 381.256 167.107L381.245 167.349ZM378.451 164.841C377.894 164.841 377.425 165.021 377.043 165.38C376.669 165.732 376.457 166.194 376.405 166.766H380.508C380.457 166.194 380.241 165.732 379.859 165.38C379.485 165.021 379.016 164.841 378.451 164.841ZM390.971 164.214V170H382.985V164.214H383.766V169.318H386.604V164.214H387.385V169.318H390.19V164.214H390.971ZM398.261 167.349H393.421C393.465 167.95 393.696 168.438 394.114 168.812C394.532 169.179 395.06 169.362 395.698 169.362C396.057 169.362 396.387 169.3 396.688 169.175C396.989 169.043 397.249 168.852 397.469 168.603L397.909 169.109C397.652 169.417 397.33 169.652 396.941 169.813C396.56 169.974 396.138 170.055 395.676 170.055C395.082 170.055 394.554 169.93 394.092 169.681C393.637 169.424 393.282 169.072 393.025 168.625C392.768 168.178 392.64 167.672 392.64 167.107C392.64 166.542 392.761 166.036 393.003 165.589C393.252 165.142 393.59 164.793 394.015 164.544C394.448 164.295 394.932 164.17 395.467 164.17C396.002 164.17 396.483 164.295 396.908 164.544C397.333 164.793 397.667 165.142 397.909 165.589C398.151 166.029 398.272 166.535 398.272 167.107L398.261 167.349ZM395.467 164.841C394.91 164.841 394.44 165.021 394.059 165.38C393.685 165.732 393.472 166.194 393.421 166.766H397.524C397.473 166.194 397.256 165.732 396.875 165.38C396.501 165.021 396.032 164.841 395.467 164.841ZM400.001 164.214H400.782V166.777H404.423V164.214H405.204V170H404.423V167.448H400.782V170H400.001V164.214ZM407.424 164.214H408.205V168.812L412.066 164.214H412.759V170H411.978V165.402L408.128 170H407.424V164.214ZM414.997 164.214H415.778V168.812L419.639 164.214H420.332V170H419.551V165.402L415.701 170H414.997V164.214ZM417.626 163.378C417.127 163.378 416.731 163.253 416.438 163.004C416.144 162.755 415.994 162.403 415.987 161.948H416.548C416.555 162.234 416.658 162.465 416.856 162.641C417.054 162.81 417.31 162.894 417.626 162.894C417.941 162.894 418.198 162.81 418.396 162.641C418.601 162.465 418.707 162.234 418.715 161.948H419.276C419.268 162.403 419.114 162.755 418.814 163.004C418.52 163.253 418.124 163.378 417.626 163.378Z" fill="white"/>
<g clip-path="url(#clip0_29_85)">
<path d="M232.377 146.098C231.551 146.098 230.877 147.433 230.877 149.087C230.877 150.735 231.551 152.076 232.377 152.076C233.199 152.076 233.871 150.735 233.871 149.087C233.871 147.433 233.198 146.098 232.377 146.098Z" fill="white"/>
<path d="M227.39 141.972C230.403 141.972 231.624 142.2 231.624 144.456H233.125C233.125 140.478 229.81 140.478 227.39 140.478C224.383 140.478 223.156 140.256 223.156 138H221.661C221.661 141.972 224.976 141.972 227.39 141.972Z" fill="white"/>
<path d="M235.142 144.457C235.284 144.886 235.367 145.351 235.367 145.838V152.33C235.367 154.153 234.305 155.669 232.913 155.993C232.916 156.014 232.928 156.033 232.928 156.061V161.277C232.928 161.579 232.681 161.827 232.372 161.827C232.069 161.827 231.822 161.579 231.822 161.277V156.061C231.822 156.033 231.835 156.015 231.837 155.993C230.446 155.669 229.383 154.153 229.383 152.33V145.838C229.383 145.351 229.465 144.886 229.608 144.457C225.489 145.542 222.409 149.277 222.409 153.726V162.373C222.409 167.668 226.741 172 232.035 172H232.714C238.009 172 242.34 167.668 242.34 162.373V153.726C242.34 149.277 239.26 145.542 235.142 144.457Z" fill="white"/>
</g>
<rect x="1255.5" y="140.5" width="129" height="29" stroke="#EB2D66"/>
<path d="M1276.32 154.985C1276.77 155.139 1277.12 155.381 1277.37 155.711C1277.63 156.034 1277.75 156.411 1277.75 156.844C1277.75 157.313 1277.6 157.72 1277.29 158.065C1276.98 158.41 1276.57 158.674 1276.04 158.857C1275.52 159.04 1274.95 159.132 1274.32 159.132C1273.79 159.132 1273.27 159.066 1272.74 158.934C1272.22 158.802 1271.72 158.6 1271.25 158.329L1271.8 157.053C1272.14 157.258 1272.51 157.416 1272.91 157.526C1273.32 157.629 1273.72 157.68 1274.11 157.68C1274.64 157.68 1275.08 157.585 1275.42 157.394C1275.77 157.203 1275.95 156.936 1275.95 156.591C1275.95 156.305 1275.83 156.089 1275.59 155.942C1275.35 155.795 1275.03 155.722 1274.62 155.722H1272.74V154.38H1274.49C1274.85 154.38 1275.12 154.307 1275.32 154.16C1275.53 154.013 1275.63 153.812 1275.63 153.555C1275.63 153.254 1275.48 153.02 1275.19 152.851C1274.9 152.682 1274.53 152.598 1274.08 152.598C1273.74 152.598 1273.39 152.646 1273.03 152.741C1272.68 152.829 1272.33 152.965 1272.01 153.148L1271.47 151.762C1272.29 151.344 1273.17 151.135 1274.11 151.135C1274.71 151.135 1275.27 151.223 1275.77 151.399C1276.28 151.575 1276.68 151.832 1276.98 152.169C1277.28 152.506 1277.43 152.899 1277.43 153.346C1277.43 153.713 1277.34 154.039 1277.14 154.325C1276.94 154.611 1276.67 154.831 1276.32 154.985ZM1281.33 152.994C1282.25 152.994 1282.95 153.214 1283.44 153.654C1283.93 154.087 1284.18 154.743 1284.18 155.623V159H1282.57V158.263C1282.25 158.813 1281.65 159.088 1280.77 159.088C1280.32 159.088 1279.92 159.011 1279.58 158.857C1279.25 158.703 1279 158.49 1278.82 158.219C1278.65 157.948 1278.56 157.64 1278.56 157.295C1278.56 156.745 1278.76 156.312 1279.18 155.997C1279.59 155.682 1280.24 155.524 1281.1 155.524H1282.46C1282.46 155.15 1282.35 154.864 1282.12 154.666C1281.9 154.461 1281.56 154.358 1281.1 154.358C1280.79 154.358 1280.47 154.409 1280.17 154.512C1279.86 154.607 1279.61 154.739 1279.4 154.908L1278.78 153.709C1279.1 153.482 1279.49 153.306 1279.93 153.181C1280.39 153.056 1280.85 152.994 1281.33 152.994ZM1281.2 157.933C1281.49 157.933 1281.75 157.867 1281.98 157.735C1282.21 157.596 1282.37 157.394 1282.46 157.13V156.525H1281.29C1280.58 156.525 1280.23 156.756 1280.23 157.218C1280.23 157.438 1280.32 157.614 1280.48 157.746C1280.66 157.871 1280.9 157.933 1281.2 157.933ZM1288.28 156.756H1287.39V159H1285.67V153.082H1287.39V155.381H1288.31L1289.92 153.082H1291.74L1289.68 155.92L1291.89 159H1289.86L1288.28 156.756ZM1294.92 152.994C1295.84 152.994 1296.54 153.214 1297.03 153.654C1297.52 154.087 1297.77 154.743 1297.77 155.623V159H1296.16V158.263C1295.84 158.813 1295.24 159.088 1294.36 159.088C1293.9 159.088 1293.51 159.011 1293.17 158.857C1292.84 158.703 1292.59 158.49 1292.41 158.219C1292.24 157.948 1292.15 157.64 1292.15 157.295C1292.15 156.745 1292.35 156.312 1292.76 155.997C1293.18 155.682 1293.82 155.524 1294.69 155.524H1296.05C1296.05 155.15 1295.94 154.864 1295.71 154.666C1295.49 154.461 1295.14 154.358 1294.69 154.358C1294.37 154.358 1294.06 154.409 1293.75 154.512C1293.45 154.607 1293.2 154.739 1292.98 154.908L1292.37 153.709C1292.69 153.482 1293.08 153.306 1293.52 153.181C1293.98 153.056 1294.44 152.994 1294.92 152.994ZM1294.79 157.933C1295.08 157.933 1295.34 157.867 1295.57 157.735C1295.8 157.596 1295.96 157.394 1296.05 157.13V156.525H1294.88C1294.17 156.525 1293.82 156.756 1293.82 157.218C1293.82 157.438 1293.9 157.614 1294.07 157.746C1294.25 157.871 1294.49 157.933 1294.79 157.933ZM1303.05 155.92C1303.4 156.03 1303.67 156.199 1303.86 156.426C1304.06 156.653 1304.16 156.925 1304.16 157.24C1304.16 157.614 1304.03 157.944 1303.77 158.23C1303.51 158.509 1303.16 158.725 1302.72 158.879C1302.27 159.033 1301.76 159.11 1301.2 159.11C1300.74 159.11 1300.28 159.062 1299.83 158.967C1299.39 158.872 1298.97 158.729 1298.59 158.538L1299.05 157.339C1299.68 157.64 1300.37 157.79 1301.12 157.79C1301.52 157.79 1301.84 157.731 1302.07 157.614C1302.3 157.489 1302.42 157.317 1302.42 157.097C1302.42 156.906 1302.34 156.763 1302.18 156.668C1302.02 156.565 1301.78 156.514 1301.47 156.514H1300.26V155.447H1301.32C1301.62 155.447 1301.85 155.399 1302.01 155.304C1302.17 155.209 1302.25 155.069 1302.25 154.886C1302.25 154.695 1302.15 154.549 1301.95 154.446C1301.75 154.343 1301.46 154.292 1301.09 154.292C1300.52 154.292 1299.89 154.428 1299.22 154.699L1298.8 153.511C1299.62 153.152 1300.42 152.972 1301.2 152.972C1301.73 152.972 1302.21 153.038 1302.63 153.17C1303.05 153.302 1303.39 153.496 1303.63 153.753C1303.87 154.002 1303.99 154.296 1303.99 154.633C1303.99 154.912 1303.91 155.165 1303.74 155.392C1303.57 155.612 1303.34 155.788 1303.05 155.92ZM1307.7 152.994C1308.62 152.994 1309.32 153.214 1309.82 153.654C1310.31 154.087 1310.55 154.743 1310.55 155.623V159H1308.95V158.263C1308.62 158.813 1308.02 159.088 1307.14 159.088C1306.69 159.088 1306.29 159.011 1305.95 158.857C1305.62 158.703 1305.37 158.49 1305.2 158.219C1305.02 157.948 1304.93 157.64 1304.93 157.295C1304.93 156.745 1305.14 156.312 1305.55 155.997C1305.97 155.682 1306.61 155.524 1307.47 155.524H1308.84C1308.84 155.15 1308.72 154.864 1308.5 154.666C1308.27 154.461 1307.93 154.358 1307.47 154.358C1307.16 154.358 1306.85 154.409 1306.54 154.512C1306.24 154.607 1305.98 154.739 1305.77 154.908L1305.15 153.709C1305.47 153.482 1305.86 153.306 1306.31 153.181C1306.76 153.056 1307.23 152.994 1307.7 152.994ZM1307.57 157.933C1307.86 157.933 1308.13 157.867 1308.35 157.735C1308.58 157.596 1308.74 157.394 1308.84 157.13V156.525H1307.66C1306.96 156.525 1306.6 156.756 1306.6 157.218C1306.6 157.438 1306.69 157.614 1306.86 157.746C1307.03 157.871 1307.27 157.933 1307.57 157.933ZM1317.02 154.49H1315.01V159H1313.31V154.49H1311.31V153.082H1317.02V154.49ZM1321.13 154.974C1321.9 154.981 1322.49 155.157 1322.9 155.502C1323.31 155.839 1323.52 156.32 1323.52 156.943C1323.52 157.596 1323.29 158.105 1322.82 158.472C1322.37 158.831 1321.73 159.011 1320.9 159.011L1317.93 159V153.082H1319.63V154.974H1321.13ZM1320.75 157.79C1321.08 157.797 1321.33 157.728 1321.5 157.581C1321.68 157.434 1321.77 157.214 1321.77 156.921C1321.77 156.635 1321.68 156.426 1321.5 156.294C1321.34 156.162 1321.08 156.092 1320.75 156.085L1319.63 156.074V157.79H1320.75ZM1331.54 155.92C1331.9 156.03 1332.17 156.199 1332.36 156.426C1332.56 156.653 1332.66 156.925 1332.66 157.24C1332.66 157.614 1332.53 157.944 1332.27 158.23C1332.01 158.509 1331.66 158.725 1331.21 158.879C1330.77 159.033 1330.26 159.11 1329.7 159.11C1329.23 159.11 1328.78 159.062 1328.33 158.967C1327.89 158.872 1327.47 158.729 1327.09 158.538L1327.55 157.339C1328.17 157.64 1328.86 157.79 1329.62 157.79C1330.02 157.79 1330.34 157.731 1330.57 157.614C1330.8 157.489 1330.92 157.317 1330.92 157.097C1330.92 156.906 1330.84 156.763 1330.68 156.668C1330.51 156.565 1330.28 156.514 1329.97 156.514H1328.76V155.447H1329.82C1330.12 155.447 1330.35 155.399 1330.51 155.304C1330.67 155.209 1330.75 155.069 1330.75 154.886C1330.75 154.695 1330.65 154.549 1330.44 154.446C1330.25 154.343 1329.96 154.292 1329.59 154.292C1329.01 154.292 1328.39 154.428 1327.72 154.699L1327.3 153.511C1328.12 153.152 1328.92 152.972 1329.7 152.972C1330.23 152.972 1330.71 153.038 1331.13 153.17C1331.55 153.302 1331.89 153.496 1332.13 153.753C1332.37 154.002 1332.49 154.296 1332.49 154.633C1332.49 154.912 1332.41 155.165 1332.24 155.392C1332.07 155.612 1331.84 155.788 1331.54 155.92ZM1338.42 155.909C1339.12 156.144 1339.47 156.613 1339.47 157.317C1339.47 157.852 1339.27 158.267 1338.86 158.56C1338.46 158.853 1337.86 159 1337.06 159H1333.9V153.082H1336.93C1337.67 153.082 1338.25 153.218 1338.67 153.489C1339.08 153.753 1339.29 154.127 1339.29 154.611C1339.29 154.904 1339.22 155.165 1339.06 155.392C1338.92 155.612 1338.7 155.784 1338.42 155.909ZM1335.48 155.513H1336.77C1337.38 155.513 1337.68 155.3 1337.68 154.875C1337.68 154.457 1337.38 154.248 1336.77 154.248H1335.48V155.513ZM1336.92 157.834C1337.55 157.834 1337.86 157.618 1337.86 157.185C1337.86 156.958 1337.79 156.793 1337.64 156.69C1337.5 156.58 1337.27 156.525 1336.95 156.525H1335.48V157.834H1336.92ZM1343.52 159.088C1342.9 159.088 1342.33 158.96 1341.84 158.703C1341.34 158.439 1340.96 158.076 1340.68 157.614C1340.4 157.152 1340.26 156.628 1340.26 156.041C1340.26 155.454 1340.4 154.93 1340.68 154.468C1340.96 154.006 1341.34 153.647 1341.84 153.39C1342.33 153.126 1342.9 152.994 1343.52 152.994C1344.14 152.994 1344.7 153.126 1345.19 153.39C1345.68 153.647 1346.07 154.006 1346.35 154.468C1346.62 154.93 1346.76 155.454 1346.76 156.041C1346.76 156.628 1346.62 157.152 1346.35 157.614C1346.07 158.076 1345.68 158.439 1345.19 158.703C1344.7 158.96 1344.14 159.088 1343.52 159.088ZM1343.52 157.68C1343.96 157.68 1344.32 157.533 1344.6 157.24C1344.88 156.939 1345.03 156.54 1345.03 156.041C1345.03 155.542 1344.88 155.146 1344.6 154.853C1344.32 154.552 1343.96 154.402 1343.52 154.402C1343.08 154.402 1342.72 154.552 1342.43 154.853C1342.14 155.146 1342 155.542 1342 156.041C1342 156.54 1342.14 156.939 1342.43 157.24C1342.72 157.533 1343.08 157.68 1343.52 157.68ZM1347.94 153.082H1349.65V155.392H1352.22V153.082H1353.94V159H1352.22V156.789H1349.65V159H1347.94V153.082ZM1358.35 159.088C1357.73 159.088 1357.17 158.96 1356.67 158.703C1356.18 158.439 1355.79 158.076 1355.52 157.614C1355.24 157.152 1355.1 156.628 1355.1 156.041C1355.1 155.454 1355.24 154.93 1355.52 154.468C1355.79 154.006 1356.18 153.647 1356.67 153.39C1357.17 153.126 1357.73 152.994 1358.35 152.994C1358.98 152.994 1359.53 153.126 1360.03 153.39C1360.52 153.647 1360.9 154.006 1361.18 154.468C1361.46 154.93 1361.6 155.454 1361.6 156.041C1361.6 156.628 1361.46 157.152 1361.18 157.614C1360.9 158.076 1360.52 158.439 1360.03 158.703C1359.53 158.96 1358.98 159.088 1358.35 159.088ZM1358.35 157.68C1358.79 157.68 1359.15 157.533 1359.43 157.24C1359.72 156.939 1359.86 156.54 1359.86 156.041C1359.86 155.542 1359.72 155.146 1359.43 154.853C1359.15 154.552 1358.79 154.402 1358.35 154.402C1357.91 154.402 1357.55 154.552 1357.26 154.853C1356.98 155.146 1356.84 155.542 1356.84 156.041C1356.84 156.54 1356.98 156.939 1357.26 157.24C1357.55 157.533 1357.91 157.68 1358.35 157.68ZM1365.39 156.756H1364.49V159H1362.78V153.082H1364.49V155.381H1365.42L1367.02 153.082H1368.85L1366.78 155.92L1368.99 159H1366.97L1365.39 156.756Z" fill="#EB2D66"/>
<defs>
<clipPath id="clip0_29_85">
<rect width="34" height="34" fill="white" transform="translate(215 138)"/>
</clipPath>
</defs>
</svg>
